# xmcd
#
# Track frame offsets: 
#        151
#        17274
#        30049
#        49948
#        67751
#        83524
#        104115
#        116138
#        129809
#        149782
#
# Disc length: 2208 seconds
#
# Revision: 0
# Processed by: cddbd v1.5.1PL2 Copyright (c) Steve Scherf et al.
# Submitted via: ExactAudioCopy v0.95b4
#
DISCID=79089e0a
DTITLE=แดง  จิตกร - รวมฮิตเพลงหมอลำ 1
DYEAR=2006
DGENRE=Country
TTITLE0=ฟ้าไกลดิน
TTITLE1=จิตกรอกหัก
TTITLE2=ขี้แหร่ขอร้อง
TTITLE3=สาวอรใจร้าย
TTITLE4=สาบานรักพระธาตุพนม
TTITLE5=น้องพรลืมพี่
TTITLE6=ฟ้าร้องไห้น้องรอ
TTITLE7=รปภ.หัวใจ
TTITLE8=สองวันฉันขาดใจ
TTITLE9=ทหารเกณฑ์เข้าเวรรอ
EXTD=
EXTT0=
EXTT1=
EXTT2=
EXTT3=
EXTT4=
EXTT5=
EXTT6=
EXTT7=
EXTT8=
EXTT9=
PLAYORDER=
